<?xml version="1.0" encoding="utf-8"?>
<!-- Generator: Adobe Illustrator 19.1.0, SVG Export Plug-In . SVG Version: 6.00 Build 0)  -->
<!DOCTYPE svg PUBLIC "-//W3C//DTD SVG 1.1//EN" "http://www.w3.org/Graphics/SVG/1.1/DTD/svg11.dtd">
<svg version="1.1" id="Warstwa_1" xmlns="http://www.w3.org/2000/svg" xmlns:xlink="http://www.w3.org/1999/xlink" x="0px" y="0px"
	 viewBox="-99.9 241.9 30 30" style="enable-background:new -99.9 241.9 30 30;" xml:space="preserve">
<style type="text/css">
	.st0{fill:#563D7C;}
	.st1{fill:#FFFFFF;}
</style>
<g>
	<path class="st0" d="M-99.9,268.1c0,2.1,1.7,3.9,3.9,3.9h22.3c2.1,0,3.9-1.7,3.9-3.9v-22.3c0-2.1-1.7-3.9-3.9-3.9h-22.3
		c-2.1,0-3.9,1.7-3.9,3.9V268.1z"/>
	<path class="st1" d="M-87.5,255.2V251h3.7c0.4,0,0.7,0,1,0.1c0.3,0.1,0.6,0.2,0.9,0.3c0.3,0.2,0.5,0.4,0.6,0.6
		c0.2,0.3,0.2,0.6,0.2,1c0,0.8-0.2,1.3-0.7,1.7c-0.5,0.3-1,0.5-1.8,0.5H-87.5L-87.5,255.2z M-91.5,247.9V266h8.8
		c0.8,0,1.6-0.1,2.4-0.3c0.8-0.2,1.5-0.5,2.1-0.9s1.1-1,1.4-1.6c0.4-0.7,0.5-1.5,0.5-2.4c0-1.1-0.3-2.1-0.8-2.9s-1.4-1.4-2.5-1.7
		c0.8-0.4,1.4-0.9,1.9-1.5s0.6-1.4,0.6-2.3c0-0.8-0.1-1.6-0.4-2.1c-0.3-0.6-0.7-1-1.2-1.4c-0.5-0.4-1.1-0.6-1.8-0.8
		c-0.7-0.2-1.5-0.2-2.4-0.2H-91.5L-91.5,247.9z M-87.5,262.9v-5h4.4c0.9,0,1.6,0.2,2.1,0.6s0.8,1.1,0.8,2c0,0.5-0.1,0.9-0.2,1.2
		c-0.2,0.3-0.4,0.5-0.7,0.7c-0.3,0.2-0.6,0.3-0.9,0.4c-0.4,0.1-0.7,0.1-1.1,0.1L-87.5,262.9L-87.5,262.9z"/>
</g>
</svg>
