<svg id="Layer_1" data-name="Layer 1" xmlns="http://www.w3.org/2000/svg" viewBox="0 0 278.36 70.75"><defs><style>.cls-1{fill:#222221;}</style></defs><title>jquery-logo-black</title><path class="cls-1" d="M108,63.11c0,.61-.06,1.24-.14,1.91l2.49-4.51L110.11,59l2.5-.39.91,6.26L114.66,61a4.18,4.18,0,0,0,.15-1,3.59,3.59,0,0,0-.11-1l2.61-.5a6.45,6.45,0,0,1,.14,1.47,6.63,6.63,0,0,1-.61,2.36L114.73,68h-3.12L111,63.78,108.51,68h-3a59.91,59.91,0,0,0-.3-9l2.6-.4A25,25,0,0,1,108,63.11Z" transform="translate(-0.82 -0.13)"/><path class="cls-1" d="M124.26,61c-1.2.65-1.65.9-2.75,1.57L120.35,68h-2.7l1.91-9.09,2.38-.4-.1,1.26a21.46,21.46,0,0,1,2.47-1.26Z" transform="translate(-0.82 -0.13)"/><path class="cls-1" d="M125.86,58.9l2.79-.38-2,9.49h-2.7Zm.88-4.11,2.78-.38-.62,2.87-2.76.38Z" transform="translate(-0.82 -0.13)"/><path class="cls-1" d="M133.62,60.85l-1,4.65c0,.1,0,.19,0,.25s.07.19.27.19a4.33,4.33,0,0,0,1.46-.38l.47,1.87a6.64,6.64,0,0,1-3,.77c-1.36,0-2.06-.65-2-1.76a2.57,2.57,0,0,1,0-.4l1.1-5.19h-1.38l.46-2.16h1.38l.46-2.23,2.78-.39-.55,2.62h2.22l-.61,2.16Z" transform="translate(-0.82 -0.13)"/><path class="cls-1" d="M136.83,62c.45-2.14,1.46-3.52,4.4-3.52,1.76,0,3.07.77,3,2.34-.07,1.81-1,2.65-3.35,3.34-1.14.35-1.16.35-2,.56l-.14.65c-.07.34,0,.65.46.65a10.73,10.73,0,0,0,3.68-1l.45,1.92a9.52,9.52,0,0,1-4.59,1.28c-1.93,0-2.73-.84-2.67-2.43a6,6,0,0,1,.15-1.13Zm4.9-.9c0-.32-.27-.53-.76-.53-1,0-1.29.55-1.45,1.32l-.13.65c.46-.12.67-.16,1.23-.33C141.36,62,141.71,61.68,141.73,61.12Z" transform="translate(-0.82 -0.13)"/><path class="cls-1" d="M151.2,54.89l2.79-.38L151.15,68h-2.7Z" transform="translate(-0.82 -0.13)"/><path class="cls-1" d="M154.34,62c.45-2.14,1.46-3.52,4.4-3.52,1.76,0,3.07.77,3,2.34-.07,1.81-1,2.65-3.35,3.34-1.14.35-1.16.35-2,.56l-.14.65c-.07.34,0,.65.46.65a10.77,10.77,0,0,0,3.69-1l.45,1.92a9.6,9.6,0,0,1-4.6,1.28c-1.93,0-2.72-.84-2.67-2.43a6,6,0,0,1,.16-1.13Zm4.9-.9c0-.32-.26-.53-.76-.53-1,0-1.28.55-1.44,1.32l-.14.65c.46-.12.67-.16,1.23-.33C158.87,62,159.22,61.68,159.24,61.12Z" transform="translate(-0.82 -0.13)"/><path class="cls-1" d="M162,67.59l.59-2a7.09,7.09,0,0,0,2.5.47c.9,0,1-.26,1.06-.7s-.17-.65-1.2-1.21c-1.91-1-2-1.72-1.67-3.11.43-2,1.05-2.55,3.63-2.55a9.71,9.71,0,0,1,2.75.44l-.51,2a10.2,10.2,0,0,0-2.34-.35c-.8,0-.92.1-1,.6s0,.53.88,1c2.1,1.15,2.41,1.55,2.09,3-.45,2.11-1.09,3-3.88,3A8,8,0,0,1,162,67.59Z" transform="translate(-0.82 -0.13)"/><path class="cls-1" d="M169.71,67.59l.58-2a7.15,7.15,0,0,0,2.51.47c.9,0,1-.26,1-.7s-.16-.65-1.2-1.21c-1.91-1-2-1.72-1.66-3.11.43-2,1-2.55,3.62-2.55a9.84,9.84,0,0,1,2.76.44l-.51,2a10.2,10.2,0,0,0-2.34-.35c-.8,0-.92.1-1,.6s0,.53.89,1c2.1,1.15,2.41,1.55,2.09,3-.46,2.11-1.1,3-3.89,3A7.89,7.89,0,0,1,169.71,67.59Z" transform="translate(-0.82 -0.13)"/><path class="cls-1" d="M177.09,70.09,178.64,68h-1l.67-3.18H181l-.72,3.41L178,70.87Z" transform="translate(-0.82 -0.13)"/><path class="cls-1" d="M191.83,68l-.05-.81a4.62,4.62,0,0,1-3,1c-2,0-2.48-1.23-2-3.31l.52-2.51c.46-2.21,1.1-3.88,5-3.88a6.76,6.76,0,0,1,1.12.1l.78-3.71,2.77-.38L194.1,68Zm-2.46-2.8c-.12.5,0,.73.49.73a3.33,3.33,0,0,0,2.19-1l.87-4.14a5.6,5.6,0,0,0-1-.08c-1.39,0-1.71.74-1.91,1.64Z" transform="translate(-0.82 -0.13)"/><path class="cls-1" d="M196.61,65.08a4.81,4.81,0,0,1,.08-.65l.46-2.16c.51-2.39,1.72-3.77,5-3.77,2.51,0,3.58,1.44,3.53,3.1a4.12,4.12,0,0,1-.09.67l-.45,2.16c-.48,2.24-1.61,3.77-5,3.77C197.75,68.2,196.55,66.78,196.61,65.08Zm6.33-3.27c0-.69-.38-1.05-1.26-1.05a1.67,1.67,0,0,0-1.81,1.43l-.48,2.32a1.73,1.73,0,0,0,0,.38c0,.67.38,1,1.26,1a1.67,1.67,0,0,0,1.81-1.43l.48-2.32A2.65,2.65,0,0,0,202.94,61.81Z" transform="translate(-0.82 -0.13)"/><path class="cls-1" d="M222.1,61.68a1.26,1.26,0,0,0,.05-.29c0-.19-.08-.27-.35-.27a8.13,8.13,0,0,0-2.46.9l-1.26,6H215.4l1.33-6.33a2.21,2.21,0,0,0,.05-.29c0-.19-.09-.27-.35-.27A8.09,8.09,0,0,0,214,62l-1.27,6H210l1.9-9.09,2.39-.4-.06,1a9,9,0,0,1,3.71-1,1.42,1.42,0,0,1,1.57,1.09,7.63,7.63,0,0,1,3.8-1.09c1.25,0,1.68.71,1.64,1.89a6.33,6.33,0,0,1-.13,1.08L223.47,68h-2.7Z" transform="translate(-0.82 -0.13)"/><path class="cls-1" d="M225.88,65.08a4.81,4.81,0,0,1,.08-.65l.46-2.16c.51-2.39,1.72-3.77,5-3.77,2.51,0,3.58,1.44,3.53,3.1a4.12,4.12,0,0,1-.09.67l-.45,2.16c-.48,2.24-1.61,3.77-5,3.77C227,68.2,225.82,66.78,225.88,65.08Zm6.33-3.27c0-.69-.38-1.05-1.26-1.05a1.66,1.66,0,0,0-1.81,1.43l-.48,2.32a1.73,1.73,0,0,0,0,.38c0,.67.38,1,1.26,1a1.67,1.67,0,0,0,1.81-1.43l.48-2.32A2.65,2.65,0,0,0,232.21,61.81Z" transform="translate(-0.82 -0.13)"/><path class="cls-1" d="M242.07,61c-1.21.65-1.66.9-2.75,1.57L238.15,68h-2.69l1.9-9.09,2.38-.4-.1,1.26a20.76,20.76,0,0,1,2.48-1.26Z" transform="translate(-0.82 -0.13)"/><path class="cls-1" d="M242.68,62c.46-2.14,1.46-3.52,4.41-3.52,1.76,0,3.07.77,3,2.34-.06,1.81-1,2.65-3.35,3.34-1.14.35-1.15.35-2,.56l-.14.65c-.07.34,0,.65.45.65a10.71,10.71,0,0,0,3.69-1l.45,1.92a9.52,9.52,0,0,1-4.59,1.28c-1.94,0-2.73-.84-2.67-2.43a6,6,0,0,1,.15-1.13Zm4.91-.9c0-.32-.27-.53-.77-.53-1,0-1.28.55-1.44,1.32l-.14.65c.47-.12.68-.16,1.24-.33C247.21,62,247.57,61.68,247.59,61.12Z" transform="translate(-0.82 -0.13)"/><path class="cls-1" d="M251.21,64.83h2.69L253.24,68h-2.7Z" transform="translate(-0.82 -0.13)"/><path class="cls-1" d="M4.09,13.57c-4.56,6.55-4,15.06-.51,22,.08.17.17.33.26.5s.1.21.16.31l.1.18.18.33.33.56.2.32c.12.2.26.4.38.6a2.2,2.2,0,0,0,.17.25c.18.28.36.55.55.81l0,0L6,39.6l.51.67c.06.09.13.17.19.25l.47.58.19.21c.2.25.42.5.65.75H8s0,0,0,0l.66.7L9,43c.17.17.34.35.53.52l.22.21c.24.22.48.45.73.66h0l.12.11.66.56.27.21.56.44.3.22.61.44.23.16.06,0,.6.4.26.17.94.58.26.14.71.4.4.2.5.27.12,0,.2.1c.26.13.53.25.81.37l.16.08.94.39.23.08c.28.12.58.23.88.33l.11,0,1,.32.24.07a9.58,9.58,0,0,0,1,.29c22,4,28.44-13.24,28.44-13.24-5.38,7-14.92,8.85-24,6.79-.34-.07-.67-.18-1-.28l-.25-.08-1-.31-.14-.05-.85-.32-.24-.09-.93-.39-.18-.08-.78-.36-.23-.11-.6-.31c-.14-.07-.27-.13-.4-.21l-.73-.4-.24-.14-.94-.58-.26-.17-.67-.44L17.45,40l-.64-.46-.28-.21L16,38.85l-.25-.2c-.25-.2-.48-.4-.71-.6L14.92,38l-.75-.68L14,37.1l-.54-.53-.21-.21-.66-.7,0,0c-.23-.25-.45-.51-.67-.77l-.18-.2-.48-.6L11,33.84l-.55-.74c-5-6.85-6.83-16.29-2.82-24" transform="translate(-0.82 -0.13)"/><path class="cls-1" d="M18.24,8.05c-3.31,4.74-3.12,11.09-.55,16.1a19.24,19.24,0,0,0,1.45,2.43,11.63,11.63,0,0,0,1.7,2.12c.23.26.48.52.74.77l.2.2c.24.23.49.47.75.69l0,0h0c.28.25.58.49.88.73l.2.15c.3.24.61.46.92.68l0,0,.42.28.2.13.68.42.1,0,.61.34.21.11.42.22.07,0c.29.15.58.28.87.41l.2.08.72.3.31.11.67.23.3.09a6.23,6.23,0,0,0,1,.28c17,2.82,20.94-10.28,20.94-10.28-3.54,5.11-10.4,7.54-17.71,5.64l-1-.28-.28-.1-.68-.23-.3-.11-.73-.29-.19-.09-.89-.41-.45-.23-.25-.13c-.2-.1-.38-.21-.57-.32l-.13-.07c-.23-.14-.46-.27-.68-.42l-.21-.13-.45-.3c-.31-.21-.61-.44-.91-.67l-.21-.16a20.46,20.46,0,0,1-7-9.9,15.35,15.35,0,0,1,1.2-12.33" transform="translate(-0.82 -0.13)"/><path class="cls-1" d="M30.13,3.93a9.88,9.88,0,0,0-.79,9.56,13.5,13.5,0,0,0,7.74,7.23l.41.15a.6.6,0,0,1,.19.06c.2.06.4.13.6.17,9.4,1.82,11.94-4.82,12.63-5.8-2.24,3.22-6,4-10.59,2.87-.36-.09-.76-.22-1.11-.34s-.89-.35-1.32-.55a13.48,13.48,0,0,1-2.32-1.42c-4.12-3.12-6.68-9.08-4-13.93" transform="translate(-0.82 -0.13)"/><path class="cls-1" d="M247.82,17.32l.36,1.56a.62.62,0,0,1-.63.8" transform="translate(-0.82 -0.13)"/><path class="cls-1" d="M218.18,14.65c-.09.43-.21,1-.28,1.34L214.65,31.2l3.42-16Z" transform="translate(-0.82 -0.13)"/><polygon class="cls-1" points="119.96 24.7 118.17 31.06 119.96 24.71 119.96 24.7"/><path class="cls-1" d="M248.18,18.88l-.93-4c-.74-2.87-2.83-4.23-7.54-4.23H219.92a1,1,0,0,0-1,.66L211.4,47a2.24,2.24,0,0,0-.07,1c0,.23.93.19,1.38.19h6.86a7.86,7.86,0,0,0,1.53-.06c.26-.11.37-.79.46-1.24L224,34.36l3-13.85a1.08,1.08,0,0,1,1-.81l19.61,0a.62.62,0,0,0,.63-.8" transform="translate(-0.82 -0.13)"/><path class="cls-1" d="M276.08,4.44h-8.7a2,2,0,0,0-1.29.87L250.82,27.76c-.26.38-.55.36-.65-.08L249,22.76a1.08,1.08,0,0,0-1-.81h-9.8a.61.61,0,0,0-.61.82L242,38.18a3.5,3.5,0,0,1,0,1.61L240,47.6c-.11.44.17.57.64.57h9.68c.46,0,.93-.13,1-.57l2-7.92a4.77,4.77,0,0,1,.7-1.41L279,5.23c.28-.36.24-.79-.21-.79Z" transform="translate(-0.82 -0.13)"/><path class="cls-1" d="M173.94,10.72h-8.85c-.45,0-.92.16-1,.61L161.16,25l-2.92,13.11c-.09.45-.54.42-1,.42h-5.82c-5.75,0-5.09-3.64-3.9-9.09,0-.06,3.69-18.13,3.69-18.13.08-.44-.22-.61-.67-.61H142.1c-.45,0-.9.17-1,.61l-3.4,18.12C136,39.24,136,47.86,147.33,48.14h17.93c.46,0,.91-.15,1-.59l3.85-18.17L174,11.14S174.1,10.72,173.94,10.72Z" transform="translate(-0.82 -0.13)"/><path class="cls-1" d="M85.76,10.69H76.27c-.46,0-.92.11-1,.56l-1.71,7.41a.62.62,0,0,0,.65.79h9.09a1.13,1.13,0,0,0,1-.86l1.65-7.46S86.07,10.69,85.76,10.69Z" transform="translate(-0.82 -0.13)"/><path class="cls-1" d="M73.58,22a1.09,1.09,0,0,0-1,.81l-1.28,5.65L68.43,41.46s-1.52,6.94-1.67,7.38c0,0-1.28,5-4.33,4.81a29.41,29.41,0,0,1-3-.42h0c-.86-.26-.92.63-1,1.07l-1.89,8.13a.66.66,0,0,0,.64.85,61.6,61.6,0,0,0,7,.58h.47c7.13,0,10.9-4.19,13.31-15.57l2.82-13.18,2.64-12.26A.66.66,0,0,0,82.7,22" transform="translate(-0.82 -0.13)"/><path class="cls-1" d="M196.34,10.64c-16,0-19.77,9.87-21.89,19.65-2.12,10-1.94,17.86,14.58,17.86h15.11a1.13,1.13,0,0,0,1-.87L206.75,41c.09-.45-.21-.58-.66-.58H191.23c-5.38,0-7.31-1.66-7.12-5.38,0-.43.48-1.5.94-1.5h22.88c1,0,1-.6,1-.6,2.33-10.51,2.48-22.26-12.63-22.26m4.21,15.67c0,.49-1.56.4-1.56.4l-12.45-.09c-.43,0-.55-.6-.58-1a5.07,5.07,0,0,1,.07-.64c1-3.33,3.83-5.24,8.38-5.24,5.12,0,6.22,2.54,6.22,5.35" transform="translate(-0.82 -0.13)"/><path class="cls-1" d="M127.34,37.85s4.47-10.86,5.48-17.14C134.21,12.31,130,.13,113.76.13S90.6,11.76,87.91,24.41s.83,23.83,16.89,23.74l24.52,0a1.14,1.14,0,0,0,1-.8l2.07-7.87a.62.62,0,0,0-.63-.81h-4a.51.51,0,0,1-.56-.59.77.77,0,0,1,0-.19m-8.44-6.66-1.84,6.29a1.15,1.15,0,0,1-1.1.73h-9.49c-7.2,0-9-5.56-7.2-13.87,1.75-8.49,5.24-13.74,12.32-14.28,9.69-.73,11.67,6.11,9.32,14Z" transform="translate(-0.82 -0.13)"/></svg>